<?xml version="1.0" encoding="UTF-8" standalone="no"?>
<svg
   xmlns:cc="http://creativecommons.org/ns#"
   xmlns:dc="http://purl.org/dc/elements/1.1/"
   xmlns:inkscape="http://www.inkscape.org/namespaces/inkscape"
   xmlns:rdf="http://www.w3.org/1999/02/22-rdf-syntax-ns#"
   xmlns:sodipodi="http://sodipodi.sourceforge.net/DTD/sodipodi-0.dtd"
   enable-background="new 0 0 200 200"
   height="240"
   id="svg2"
   version="1.1"
   viewBox="0 0 240 240"
   width="240"
   xmlns="http://www.w3.org/2000/svg"
   inkscape:export-filename="/Users/dsa/AndroidStudioProjects/WayToday/app/src/main/res/mipmap-mdpi/ic_launcher.png"
   inkscape:export-xdpi="18"
   inkscape:export-ydpi="18"
   inkscape:version="0.92.2 5c3e80d, 2017-08-06"
   sodipodi:docname="foot-border.svg"
   xml:space="preserve"><metadata
     id="metadata201"><rdf:RDF><cc:Work
         rdf:about=""><dc:format>image/svg+xml</dc:format><dc:type
           rdf:resource="http://purl.org/dc/dcmitype/StillImage" /><dc:title></dc:title></cc:Work></rdf:RDF></metadata><defs
     id="defs199" /><sodipodi:namedview
     bordercolor="#666666"
     borderopacity="1"
     gridtolerance="10"
     guidetolerance="10"
     id="namedview197"
     objecttolerance="10"
     pagecolor="#ffffff"
     showgrid="false"
     inkscape:current-layer="svg2"
     inkscape:cx="168.0343"
     inkscape:cy="100"
     inkscape:pageopacity="0"
     inkscape:pageshadow="2"
     inkscape:window-height="756"
     inkscape:window-maximized="0"
     inkscape:window-width="1280"
     inkscape:window-x="67"
     inkscape:window-y="0"
     inkscape:zoom="1.18" /><g
     id="outline_x5F_white"
     transform="translate(0,40)"><g
       id="g5"><g
         id="g7"><g
           id="g9"><path
             style="fill:#ffffff"
             d="m 45.769,62.823 c 4.841,0 9.418,1.264 13.145,5.892 10.621,13.202 1.003,24.961 -9.947,24.961 -4.612,0 -9.461,-2.087 -13.132,-7.032 -0.843,-1.377 -1.686,-2.756 -2.53,-4.131 -2.086,-6.902 -0.942,-12.527 3.055,-17.014 1.205,-0.742 2.408,-1.479 3.612,-2.218 1.95,-0.262 3.894,-0.458 5.797,-0.458 m 0,-12 c -2.873,0 -5.6,0.323 -7.401,0.566 -1.655,0.223 -3.245,0.789 -4.668,1.662 l -0.32,0.196 c -1.104,0.677 -2.208,1.354 -3.313,2.035 -0.992,0.611 -1.89,1.364 -2.665,2.233 -6.831,7.667 -8.813,17.777 -5.583,28.469 0.298,0.985 0.722,1.93 1.261,2.808 l 1.676,2.735 0.847,1.384 c 0.186,0.304 0.386,0.599 0.598,0.885 5.604,7.55 13.903,11.88 22.767,11.88 10.343,0 19.816,-5.823 24.132,-14.836 4.51,-9.416 2.747,-20.222 -4.836,-29.647 -5.54,-6.882 -13.109,-10.37 -22.495,-10.37 l 0,0 z"
             id="path11"
             inkscape:connector-curvature="0" /></g><g
           id="g13"><path
             style="fill:#ffffff"
             d="m 67.368,47.841 c 3.34,0 6.636,2.646 8.915,6.873 3.984,7.389 -0.599,12.936 -6.224,12.936 -3.482,0 -7.364,-2.126 -9.859,-7.259 -1.733,-3.565 -1.431,-5.896 0.83,-8.863 1.951,-2.557 4.155,-3.687 6.338,-3.687 m 0,-12 c -6.101,0 -11.739,2.985 -15.876,8.405 -5.06,6.639 -5.759,13.833 -2.084,21.391 4.265,8.774 11.985,14.013 20.652,14.013 6.983,0 13.492,-3.637 16.986,-9.492 3.739,-6.265 3.666,-13.97 -0.2,-21.14 C 82.396,40.767 75.114,35.841 67.368,35.841 l 0,0 z"
             id="path15"
             inkscape:connector-curvature="0" /></g><g
           id="g17"><path
             style="fill:#ffffff"
             d="m 122.417,39.748 c 3.671,0 5.794,3.556 5.78,8.292 -0.018,4.728 -2.85,7.038 -5.827,7.038 -3.435,0 -7.062,-3.073 -6.79,-9.054 0.134,-2.967 1.168,-4.392 3.716,-5.534 1.136,-0.509 2.179,-0.742 3.121,-0.742 m 0,-12 c -2.67,0 -5.369,0.602 -8.021,1.788 -6.736,3.021 -10.47,8.534 -10.805,15.948 -0.281,6.184 1.696,11.825 5.568,15.877 3.472,3.633 8.285,5.717 13.21,5.717 10.126,0 17.79,-8.167 17.827,-18.996 0.019,-6.162 -2.025,-11.611 -5.754,-15.351 -3.204,-3.214 -7.474,-4.983 -12.025,-4.983 l 0,0 z"
             id="path19"
             inkscape:connector-curvature="0" /></g><g
           id="g21"><path
             style="fill:#ffffff"
             d="m 83.252,37.899 c 7.016,0 13.579,14.753 6.786,18.825 -0.977,0.585 -2.019,0.849 -3.073,0.849 -6.503,0 -13.512,-10.012 -8.866,-16.5 1.611,-2.249 3.396,-3.174 5.153,-3.174 m 0,-12 c -3.378,0 -9.808,1.064 -14.909,8.188 -4.592,6.412 -5.002,14.777 -1.096,22.378 4.092,7.963 11.831,13.108 19.718,13.108 3.256,0 6.452,-0.884 9.242,-2.556 7.318,-4.387 10.359,-13.316 7.749,-22.748 -2.448,-8.847 -9.972,-18.37 -20.704,-18.37 l 0,0 z"
             id="path23"
             inkscape:connector-curvature="0" /></g><g
           id="g25"><path
             style="fill:#ffffff"
             d="m 103.34,35.298 c 1.854,0 3.489,0.925 4.598,2.107 6.789,7.243 1.588,16.452 -4.42,16.452 -1.666,0 -3.395,-0.708 -4.944,-2.364 -5.257,-5.607 -3.438,-9.943 -0.927,-13.004 1.912,-2.328 3.903,-3.191 5.693,-3.191 m 0,-12 c -5.638,0 -10.953,2.689 -14.966,7.573 -7.367,8.98 -6.812,20.024 1.443,28.83 3.72,3.97 8.586,6.157 13.701,6.157 7.601,0 14.603,-4.824 17.836,-12.289 3.545,-8.182 1.758,-17.52 -4.662,-24.37 -3.512,-3.75 -8.38,-5.901 -13.352,-5.901 l 0,0 z"
             id="path27"
             inkscape:connector-curvature="0" /></g><g
           id="g29"><path
             style="fill:#ffffff"
             d="m 106.912,56.274 c 13.809,0 27.57,8.358 38.65,25.933 13.189,20.927 19.908,48.929 17.766,62.193 -1.406,8.713 -13.01,20.302 -22.605,20.302 -2.941,0 -5.697,-1.091 -7.91,-3.688 -10.102,-11.861 -4.441,-21.685 -12.676,-34.615 -5.184,-8.137 -10.726,-9.854 -16.404,-9.854 -4.151,0 -8.376,0.918 -12.587,0.918 -5.479,0 -10.934,-1.554 -16.175,-8.701 C 62.932,92.34 69.268,76.051 80.52,66.735 88.849,59.84 97.889,56.274 106.912,56.274 m 0,-12 c -11.826,0 -23.599,4.569 -34.045,13.215 -8.131,6.732 -13.676,15.681 -15.615,25.198 -1.615,7.925 -1.531,20.113 8.04,33.168 6.714,9.156 15.17,13.606 25.853,13.606 2.767,0 5.356,-0.282 7.642,-0.532 1.814,-0.197 3.531,-0.386 4.945,-0.386 1.979,0 3.543,0 6.283,4.301 2.475,3.886 2.994,7.257 3.717,11.921 1.041,6.725 2.334,15.094 9.944,24.028 4.345,5.101 10.396,7.908 17.046,7.908 16.366,0 32.229,-16.624 34.452,-30.388 2.857,-17.69 -5.69,-48.661 -19.461,-70.506 C 142.896,55.473 125.562,44.274 106.912,44.274 l 0,0 z"
             id="path31"
             inkscape:connector-curvature="0" /></g></g></g></g><g
     id="outline_x5F_black"
     transform="matrix(1.5340488,0,0,1.5558039,-30.32566,-35.581949)"><g
       id="g34"><g
         id="g36"><g
           id="g38"><path
             d="m 45.769,62.823 c 4.841,0 9.418,1.264 13.145,5.892 10.621,13.202 1.003,24.961 -9.947,24.961 -4.612,0 -9.461,-2.087 -13.132,-7.032 -0.843,-1.377 -1.686,-2.756 -2.53,-4.131 -2.086,-6.902 -0.942,-12.527 3.055,-17.014 1.205,-0.742 2.408,-1.479 3.612,-2.218 1.95,-0.262 3.894,-0.458 5.797,-0.458 m 0,-6 c -1.938,0 -3.973,0.158 -6.599,0.512 l -2.334,0.831 -0.301,0.185 c -1.107,0.679 -2.214,1.357 -3.322,2.04 l -1.332,1.117 c -3.812,4.279 -7.657,11.697 -4.319,22.741 l 0.63,1.404 1.679,2.739 0.848,1.386 0.299,0.442 c 4.527,6.098 10.901,9.456 17.95,9.456 8.048,0 15.396,-4.485 18.721,-11.428 3.473,-7.25 1.978,-15.74 -4.1,-23.294 -4.405,-5.472 -10.234,-8.131 -17.82,-8.131 z"
             id="path40"
             inkscape:connector-curvature="0" /></g><g
           id="g42"><path
             d="m 67.368,47.841 c 3.34,0 6.636,2.646 8.915,6.873 3.984,7.389 -0.599,12.936 -6.224,12.936 -3.482,0 -7.364,-2.126 -9.859,-7.259 -1.733,-3.565 -1.431,-5.896 0.83,-8.863 1.951,-2.557 4.155,-3.687 6.338,-3.687 m 0,-6 c -4.187,0 -8.131,2.147 -11.107,6.045 -3.671,4.817 -4.133,9.623 -1.457,15.127 3.237,6.66 8.94,10.636 15.256,10.636 4.882,0 9.417,-2.516 11.834,-6.567 2.63,-4.406 2.51,-9.952 -0.329,-15.217 -3.436,-6.37 -8.611,-10.024 -14.197,-10.024 z"
             id="path44"
             inkscape:connector-curvature="0" /></g><g
           id="g46"><path
             d="m 122.417,39.748 c 3.671,0 5.794,3.556 5.78,8.292 -0.018,4.728 -2.85,7.038 -5.827,7.038 -3.435,0 -7.062,-3.073 -6.79,-9.054 0.134,-2.967 1.168,-4.392 3.716,-5.534 1.136,-0.509 2.179,-0.742 3.121,-0.742 m 0,-6 c -1.819,0 -3.694,0.425 -5.571,1.265 -4.654,2.087 -7.027,5.6 -7.26,10.741 -0.206,4.535 1.184,8.606 3.912,11.462 2.346,2.455 5.579,3.862 8.872,3.862 5.854,0 11.798,-4.471 11.827,-13.017 0.014,-4.552 -1.408,-8.491 -4.004,-11.093 -2.069,-2.077 -4.832,-3.22 -7.776,-3.22 z"
             id="path48"
             inkscape:connector-curvature="0" /></g><g
           id="g50"><path
             d="m 83.252,37.899 c 7.016,0 13.579,14.753 6.786,18.825 -0.977,0.585 -2.019,0.849 -3.073,0.849 -6.503,0 -13.512,-10.012 -8.866,-16.5 1.611,-2.249 3.396,-3.174 5.153,-3.174 m 0,-6 c -2.227,0 -6.491,0.738 -10.031,5.681 -3.257,4.547 -3.495,10.582 -0.638,16.142 3.028,5.892 8.808,9.851 14.382,9.851 2.201,0 4.272,-0.573 6.157,-1.703 5.016,-3.006 6.951,-9.137 5.052,-16 C 96.252,38.928 90.51,31.899 83.252,31.899 Z"
             id="path52"
             inkscape:connector-curvature="0" /></g><g
           id="g54"><path
             d="m 103.34,35.298 c 1.854,0 3.489,0.925 4.598,2.107 6.789,7.243 1.588,16.452 -4.42,16.452 -1.666,0 -3.395,-0.708 -4.944,-2.364 -5.257,-5.607 -3.438,-9.943 -0.927,-13.004 1.912,-2.328 3.903,-3.191 5.693,-3.191 m 0,-6 c -2.695,0 -6.675,0.934 -10.33,5.382 -5.465,6.662 -5.032,14.285 1.186,20.917 2.573,2.747 5.885,4.26 9.322,4.26 5.209,0 10.049,-3.405 12.332,-8.674 2.578,-5.952 1.225,-12.804 -3.535,-17.881 -2.383,-2.544 -5.656,-4.004 -8.975,-4.004 z"
             id="path56"
             inkscape:connector-curvature="0" /></g><g
           id="g58"><path
             d="m 106.912,56.274 c 13.809,0 27.57,8.358 38.65,25.933 13.189,20.927 19.908,48.929 17.766,62.193 -1.406,8.713 -13.01,20.302 -22.605,20.302 -2.941,0 -5.697,-1.091 -7.91,-3.688 -10.102,-11.861 -4.441,-21.685 -12.676,-34.615 -5.184,-8.137 -10.726,-9.854 -16.404,-9.854 -4.151,0 -8.376,0.918 -12.587,0.918 -5.479,0 -10.934,-1.554 -16.175,-8.701 C 62.932,92.34 69.268,76.051 80.52,66.735 88.849,59.84 97.889,56.274 106.912,56.274 m 0,-6 c -10.412,0 -20.861,4.093 -30.219,11.837 -13.432,11.122 -20.669,30.956 -6.562,50.198 5.58,7.609 12.257,11.153 21.014,11.153 2.439,0 4.753,-0.253 6.99,-0.497 1.982,-0.216 3.855,-0.421 5.598,-0.421 3.459,0 7.184,0.547 11.344,7.077 3.15,4.947 3.814,9.248 4.586,14.227 0.973,6.288 2.074,13.414 8.583,21.057 3.231,3.794 7.546,5.799 12.479,5.799 12.93,0 26.725,-14.174 28.527,-25.346 2.277,-14.096 -4.191,-43.471 -18.611,-66.35 C 138.958,60.479 123.43,50.274 106.912,50.274 Z"
             id="path60"
             inkscape:connector-curvature="0" /></g></g></g></g><g
     id="Layer_2"
     transform="matrix(1.5340488,0,0,1.5558039,-30.32566,-35.581949)" /><g
     id="Layer_1_1_"
     transform="matrix(1.5340488,0,0,1.5558039,-30.32566,-35.581949)"><g
       id="g65"><g
         id="g67"><g
           id="g69"><g
             id="g71"><radialGradient
               cx="97.901398"
               cy="-17.25"
               gradientTransform="matrix(1,0,0,-1,-50,61)"
               gradientUnits="userSpaceOnUse"
               id="SVGID_1_"
               r="15.5232"><stop
                 style="stop-color:#FFFF00"
                 id="stop74"
                 offset="0" /><stop
                 style="stop-color:#FFFD00"
                 id="stop76"
                 offset="0.4437" /><stop
                 style="stop-color:#FFF600"
                 id="stop78"
                 offset="0.6035" /><stop
                 style="stop-color:#FFEB00"
                 id="stop80"
                 offset="0.7174" /><stop
                 style="stop-color:#FFDA00"
                 id="stop82"
                 offset="0.8095" /><stop
                 style="stop-color:#FFC400"
                 id="stop84"
                 offset="0.8883" /><stop
                 style="stop-color:#FFA900"
                 id="stop86"
                 offset="0.9569" /><stop
                 style="stop-color:#FF9400"
                 id="stop88"
                 offset="1" /></radialGradient><path
               style="fill:none"
               d="m 39.973,63.281 c -1.204,0.738 -2.407,1.476 -3.612,2.218 -3.998,4.486 -5.141,10.111 -3.055,17.014 0.844,1.375 1.687,2.754 2.53,4.131 12.385,16.685 38.173,0.834 23.079,-17.929 C 53.723,62.267 46.878,62.35 39.973,63.281 Z"
               id="path90"
               inkscape:connector-curvature="0" /></g><g
             id="g92"><radialGradient
               cx="118.4365"
               cy="3.2544"
               gradientTransform="matrix(1,0,0,-1,-50,61)"
               gradientUnits="userSpaceOnUse"
               id="SVGID_2_"
               r="9.6309004"><stop
                 style="stop-color:#FFFF00"
                 id="stop95"
                 offset="0" /><stop
                 style="stop-color:#FFFD00"
                 id="stop97"
                 offset="0.4437" /><stop
                 style="stop-color:#FFF600"
                 id="stop99"
                 offset="0.6035" /><stop
                 style="stop-color:#FFEB00"
                 id="stop101"
                 offset="0.7174" /><stop
                 style="stop-color:#FFDA00"
                 id="stop103"
                 offset="0.8095" /><stop
                 style="stop-color:#FFC400"
                 id="stop105"
                 offset="0.8883" /><stop
                 style="stop-color:#FFA900"
                 id="stop107"
                 offset="0.9569" /><stop
                 style="stop-color:#FF9400"
                 id="stop109"
                 offset="1" /></radialGradient><path
               style="fill:none"
               d="m 76.283,54.714 c -3.77,-6.99 -10.315,-9.654 -15.253,-3.187 -2.261,2.967 -2.563,5.298 -0.83,8.863 6.525,13.423 22.534,6.287 16.083,-5.676 z"
               id="path111"
               inkscape:connector-curvature="0" /></g><g
             id="g113"><radialGradient
               cx="171.88091"
               cy="13.5874"
               gradientTransform="matrix(1,0,0,-1,-50,61)"
               gradientUnits="userSpaceOnUse"
               id="SVGID_3_"
               r="7.0232"><stop
                 style="stop-color:#FFFF00"
                 id="stop116"
                 offset="0" /><stop
                 style="stop-color:#FFFD00"
                 id="stop118"
                 offset="0.4437" /><stop
                 style="stop-color:#FFF600"
                 id="stop120"
                 offset="0.6035" /><stop
                 style="stop-color:#FFEB00"
                 id="stop122"
                 offset="0.7174" /><stop
                 style="stop-color:#FFDA00"
                 id="stop124"
                 offset="0.8095" /><stop
                 style="stop-color:#FFC400"
                 id="stop126"
                 offset="0.8883" /><stop
                 style="stop-color:#FFA900"
                 id="stop128"
                 offset="0.9569" /><stop
                 style="stop-color:#FF9400"
                 id="stop130"
                 offset="1" /></radialGradient><path
               style="fill:none"
               d="m 128.197,48.04 c 0.018,-5.952 -3.34,-10.039 -8.901,-7.551 -2.548,1.143 -3.582,2.567 -3.716,5.534 -0.51,11.169 12.582,12.196 12.617,2.017 z"
               id="path132"
               inkscape:connector-curvature="0" /></g><g
             id="g134"><radialGradient
               cx="134.74409"
               cy="13.2632"
               gradientTransform="matrix(1,0,0,-1,-50,61)"
               gradientUnits="userSpaceOnUse"
               id="SVGID_4_"
               r="9.0331001"><stop
                 style="stop-color:#FFFF00"
                 id="stop137"
                 offset="0" /><stop
                 style="stop-color:#FFFD00"
                 id="stop139"
                 offset="0.4437" /><stop
                 style="stop-color:#FFF600"
                 id="stop141"
                 offset="0.6035" /><stop
                 style="stop-color:#FFEB00"
                 id="stop143"
                 offset="0.7174" /><stop
                 style="stop-color:#FFDA00"
                 id="stop145"
                 offset="0.8095" /><stop
                 style="stop-color:#FFC400"
                 id="stop147"
                 offset="0.8883" /><stop
                 style="stop-color:#FFA900"
                 id="stop149"
                 offset="0.9569" /><stop
                 style="stop-color:#FF9400"
                 id="stop151"
                 offset="1" /></radialGradient><path
               style="fill:none"
               d="m 90.038,56.725 c 8.494,-5.092 -3.895,-26.884 -11.939,-15.65 -5.4,7.539 4.945,19.841 11.939,15.65 z"
               id="path153"
               inkscape:connector-curvature="0" /></g><g
             id="g155"><radialGradient
               cx="153.16499"
               cy="16.422899"
               gradientTransform="matrix(1,0,0,-1,-50,61)"
               gradientUnits="userSpaceOnUse"
               id="SVGID_5_"
               r="8.6528997"><stop
                 style="stop-color:#FFFF00"
                 id="stop158"
                 offset="0" /><stop
                 style="stop-color:#FFFD00"
                 id="stop160"
                 offset="0.4437" /><stop
                 style="stop-color:#FFF600"
                 id="stop162"
                 offset="0.6035" /><stop
                 style="stop-color:#FFEB00"
                 id="stop164"
                 offset="0.7174" /><stop
                 style="stop-color:#FFDA00"
                 id="stop166"
                 offset="0.8095" /><stop
                 style="stop-color:#FFC400"
                 id="stop168"
                 offset="0.8883" /><stop
                 style="stop-color:#FFA900"
                 id="stop170"
                 offset="0.9569" /><stop
                 style="stop-color:#FF9400"
                 id="stop172"
                 offset="1" /></radialGradient><path
               style="fill:none"
               d="m 107.938,37.405 c -2.179,-2.324 -6.397,-3.654 -10.292,1.084 -2.511,3.061 -4.33,7.396 0.927,13.004 7.143,7.624 18.034,-4.837 9.365,-14.088 z"
               id="path174"
               inkscape:connector-curvature="0" /></g><g
             id="g176"><radialGradient
               cx="166.0938"
               cy="-49.487801"
               gradientTransform="matrix(1,0,0,-1,-50,61)"
               gradientUnits="userSpaceOnUse"
               id="SVGID_6_"
               r="51.026798"><stop
                 style="stop-color:#FFFF00"
                 id="stop179"
                 offset="0" /><stop
                 style="stop-color:#FFFD00"
                 id="stop181"
                 offset="0.4437" /><stop
                 style="stop-color:#FFF600"
                 id="stop183"
                 offset="0.6035" /><stop
                 style="stop-color:#FFEB00"
                 id="stop185"
                 offset="0.7174" /><stop
                 style="stop-color:#FFDA00"
                 id="stop187"
                 offset="0.8095" /><stop
                 style="stop-color:#FFC400"
                 id="stop189"
                 offset="0.8883" /><stop
                 style="stop-color:#FFA900"
                 id="stop191"
                 offset="0.9569" /><stop
                 style="stop-color:#FF9400"
                 id="stop193"
                 offset="1" /></radialGradient><path
               style="fill:none"
               d="M 145.562,82.207 C 127.244,53.147 101.595,49.29 80.518,66.733 69.266,76.049 62.93,92.338 74.969,108.76 c 14.783,20.16 31.266,-4.183 45.166,17.637 8.234,12.933 2.575,22.756 12.678,34.617 9.428,11.068 28.678,-5.229 30.516,-16.613 2.142,-13.265 -4.576,-41.267 -17.767,-62.194 z"
               id="path195"
               inkscape:connector-curvature="0" /></g></g></g></g></g></svg>