<?xml version="1.0" ?><!DOCTYPE svg  PUBLIC '-//W3C//DTD SVG 1.1//EN'
    'http://www.w3.org/Graphics/SVG/1.1/DTD/svg11.dtd'>
<svg enable-background="new 0 0 200 200" height="200px" version="1.1" viewBox="0 0 200 200" width="200px" xmlns="http://www.w3.org/2000/svg" xml:space="preserve" ><g id="icon"><g id="Layer_2"/><g><linearGradient gradientTransform="matrix(1 0 0 -1 -50 61)" gradientUnits="userSpaceOnUse" id="SVGID_1_" x1="149.2578" x2="151.2578" y1="39.8599" y2="-168.1408"><stop style="stop-color:#FFFFFF" offset="0"/><stop style="stop-color:#6E6E6E" offset="1"/></linearGradient><path d="M160.918,146.777c1.979,10.865-5.227,21.281-16.092,23.26l-61.218,12.527    c-10.867,1.979-21.281-5.226-23.261-16.092L39.083,49.747c-1.98-10.867,5.225-21.28,16.091-23.26l61.146-9.052    c10.865-1.979,21.279,5.224,23.26,16.092L160.918,146.777z" fill="url(#SVGID_1_)"/><linearGradient gradientTransform="matrix(1 0 0 -1 -50 61)" gradientUnits="userSpaceOnUse" id="SVGID_2_" x1="143.6035" x2="157.6037" y1="81.9834" y2="-179.0177"><stop style="stop-color:#FFFFFF" offset="0"/><stop style="stop-color:#6E6E6E" offset="1"/></linearGradient><path d="M160.918,146.777c1.979,10.865-5.227,21.281-16.092,23.26l-61.218,12.527    c-10.867,1.979-21.281-5.226-23.261-16.092L39.083,49.747c-1.98-10.867,5.225-21.28,16.091-23.26l61.146-9.052    c10.865-1.979,21.279,5.224,23.26,16.092L160.918,146.777z" fill="url(#SVGID_2_)"/><linearGradient gradientTransform="matrix(1 0 0 -1 -50 61)" gradientUnits="userSpaceOnUse" id="SVGID_3_" x1="143.3623" x2="157.8761" y1="86.4248" y2="-184.1534"><stop style="stop-color:#FFFFFF" offset="0"/><stop style="stop-color:#6E6E6E" offset="1"/></linearGradient><path d="M80,185.891c-11.104,0-20.61-7.938-22.604-18.881L36.131,50.285    c-1.102-6.044,0.217-12.155,3.712-17.207c3.495-5.052,8.749-8.441,14.792-9.542l61.245-9.068c1.271-0.233,2.665-0.359,4.047-0.359    c11.104,0,20.61,7.94,22.604,18.881l21.335,113.23c2.274,12.496-6.026,24.496-18.503,26.769L84.21,185.504    C82.776,185.766,81.382,185.891,80,185.891z" fill="url(#SVGID_3_)"/><linearGradient gradientTransform="matrix(1 0 0 -1 -50 61)" gradientUnits="userSpaceOnUse" id="SVGID_4_" x1="140.6934" x2="166.6933" y1="40.5991" y2="-176.9007"><stop style="stop-color:#FFFFFF" offset="0"/><stop style="stop-color:#AAACAF" offset="1"/></linearGradient><path d="M119.928,23.108L119.928,23.108c6.754,0,12.536,4.834,13.756,11.53c0,0-3.604,32.056,1.926,61.395    c5.121,27.188,19.406,51.818,19.406,51.818c1.383,7.596-3.67,14.899-11.265,16.282l-0.063,0.013l-0.063,0.014l-61.148,12.512    c-0.82,0.146-1.652,0.221-2.475,0.221c-6.753,0-12.536-4.834-13.75-11.494c0,0,5.037-34.696-0.142-63.123    c-5.447-29.899-21.123-53.604-21.123-53.604c-0.67-3.679,0.132-7.398,2.26-10.474c2.11-3.05,5.273-5.104,8.915-5.792l61.039-9.035    l0.099-0.015l0.1-0.019C118.232,23.186,119.086,23.108,119.928,23.108" fill="url(#SVGID_4_)"/><linearGradient gradientTransform="matrix(1 0 0 -1 -50 61)" gradientUnits="userSpaceOnUse" id="SVGID_5_" x1="167.2432" x2="147.7433" y1="-126.9404" y2="-12.4414"><stop style="stop-color:#4A4747" offset="0"/><stop style="stop-color:#000000" offset="1"/></linearGradient><polygon fill="url(#SVGID_5_)" points="131.387,159.125 95.301,165.629 78.991,75.205 115.023,68.879   "/><linearGradient gradientTransform="matrix(1 0 0 -1 -50 61)" gradientUnits="userSpaceOnUse" id="SVGID_6_" x1="156.0078" x2="165.5081" y1="-31.8066" y2="-83.3084"><stop style="stop-color:#969696" offset="0.0184"/><stop style="stop-color:#A8A8A8" offset="0.0466"/><stop style="stop-color:#C7C7C7" offset="0.1051"/><stop style="stop-color:#E0E0E0" offset="0.1662"/><stop style="stop-color:#F1F1F1" offset="0.2301"/><stop style="stop-color:#FCFCFC" offset="0.2988"/><stop style="stop-color:#FFFFFF" offset="0.3804"/><stop style="stop-color:#F4F4F4" offset="0.5521"/><stop style="stop-color:#737373" offset="1"/></linearGradient><path d="M128.529,143.25l-36.214,6.375l-9.64-53.641l36.214-6.375c5.791-1.04,12.641,10.125,15.303,24.937    C136.854,129.359,134.318,142.211,128.529,143.25z" fill="url(#SVGID_6_)"/><linearGradient gradientTransform="matrix(1 0 0 -1 -50 61)" gradientUnits="userSpaceOnUse" id="SVGID_7_" x1="201.8047" x2="208.3047" y1="-126.8379" y2="-140.8379"><stop style="stop-color:#FFFFFF" offset="0"/><stop style="stop-color:#6E6E6E" offset="1"/></linearGradient><polygon fill="url(#SVGID_7_)" points="152.068,134.557 135.096,121.328 98.883,127.703 115.855,140.932   "/><linearGradient gradientTransform="matrix(1 0 0 -1 -50 61)" gradientUnits="userSpaceOnUse" id="SVGID_8_" x1="172.3604" x2="192.8633" y1="-51.5767" y2="-116.586"><stop style="stop-color:#FFFFFF" offset="0"/><stop style="stop-color:#6E6E6E" offset="1"/></linearGradient><polygon fill="url(#SVGID_8_)" points="150.193,151.783 113.98,158.158 115.838,140.936 152.051,134.561   "/><linearGradient gradientTransform="matrix(1 0 0 -1 -50 61)" gradientUnits="userSpaceOnUse" id="SVGID_9_" x1="183.8555" x2="136.8544" y1="-49.8257" y2="-71.3262"><stop style="stop-color:#B5B7B9" offset="0"/><stop style="stop-color:#6E6E6E" offset="0.6564"/><stop style="stop-color:#3D3D3D" offset="1"/></linearGradient><path d="M98.915,127.838l0.017-0.139l16.906,13.229l-1.854,17.248l-16.547-14.242    c-1.148,3.209-2.862,5.275-5.039,5.668l-9.723-53.625c5.788-1.05,12.656,10.103,15.341,24.914    C98.448,123.27,98.744,125.6,98.915,127.838z" fill="url(#SVGID_9_)"/><g><radialGradient cx="143.1094" cy="11.4624" gradientTransform="matrix(1 0 0 -1 -50 61)" gradientUnits="userSpaceOnUse" id="SVGID_10_" r="15.7892"><stop style="stop-color:#FF0000" offset="0"/><stop style="stop-color:#FF0000" offset="0.6196"/><stop style="stop-color:#FF0000;stop-opacity:0" offset="1"/></radialGradient><path d="M76.531,51.575c-1.719-9.256,4.309-17.671,13.466-18.794c9.153-1.126,17.972,5.465,19.69,14.719     c1.721,9.257-4.31,17.669-13.463,18.795C87.067,67.417,78.252,60.829,76.531,51.575z" fill="url(#SVGID_10_)"/><path d="M79.819,51.172c-1.378-7.42,3.454-14.167,10.795-15.067c7.339-0.902,14.408,4.381,15.787,11.799     c1.379,7.421-3.455,14.166-10.794,15.067C88.266,63.871,81.198,58.59,79.819,51.172z" fill="#ED1C24"/><radialGradient cx="143.1094" cy="11.4634" gradientTransform="matrix(1 0 0 -1 -50 61)" gradientUnits="userSpaceOnUse" id="SVGID_11_" r="10.957"><stop style="stop-color:#FFD262" offset="0"/><stop style="stop-color:#FFBA38" offset="0.1148"/><stop style="stop-color:#FFA819" offset="0.2182"/><stop style="stop-color:#FF9E07" offset="0.3061"/><stop style="stop-color:#FF9A00" offset="0.3681"/><stop style="stop-color:#FF9400" offset="0.4845"/><stop style="stop-color:#FF8400" offset="0.6364"/><stop style="stop-color:#FF6900" offset="0.808"/><stop style="stop-color:#FF4400" offset="0.9928"/><stop style="stop-color:#FF4200" offset="1"/></radialGradient><path d="M82.346,50.86c-1.115-6.009,2.799-11.473,8.743-12.202c5.942-0.731,11.667,3.547,12.784,9.556     c1.117,6.009-2.798,11.471-8.741,12.201C89.188,61.146,83.463,56.869,82.346,50.86z" fill="url(#SVGID_11_)"/></g></g></g><g id="outline_x5F_white"><g><path d="M119.928,17.108c9.477,0,17.893,6.763,19.652,16.419l21.338,113.25    c1.979,10.865-5.227,21.281-16.092,23.26l-61.218,12.527c-1.212,0.221-2.419,0.326-3.608,0.326    c-9.478,0-17.893-6.765-19.652-16.418L39.083,49.747c-1.98-10.867,5.225-21.28,16.091-23.26l61.146-9.052    C117.532,17.215,118.738,17.108,119.928,17.108 M119.928,5.108c-1.847,0-3.709,0.162-5.537,0.482l-60.974,9.026l-0.197,0.029    l-0.196,0.036c-8.409,1.532-15.718,6.247-20.581,13.275c-4.863,7.029-6.698,15.532-5.166,23.941l21.265,116.725    c2.773,15.221,16.003,26.269,31.458,26.269c1.922,0,3.859-0.175,5.76-0.521l0.128-0.023l0.126-0.025l61.104-12.504    c17.28-3.225,28.759-19.875,25.606-37.188l-0.008-0.035l-0.006-0.036L151.379,31.338C148.59,16.137,135.369,5.108,119.928,5.108    L119.928,5.108z" fill="#FFFFFF"/></g></g><g id="outline_x5F_black"><path d="M119.928,17.108c9.477,0,17.893,6.763,19.652,16.419l21.338,113.25c1.979,10.865-5.227,21.281-16.092,23.26l-61.218,12.527   c-1.212,0.221-2.419,0.326-3.608,0.326c-9.478,0-17.893-6.765-19.652-16.418L39.083,49.747c-1.98-10.867,5.225-21.28,16.091-23.26   l61.146-9.052C117.532,17.215,118.738,17.108,119.928,17.108 M119.928,11.108c-1.525,0-3.064,0.136-4.578,0.405l-61.054,9.038   l-0.099,0.015l-0.098,0.018c-6.833,1.245-12.771,5.075-16.722,10.786s-5.442,12.619-4.197,19.452l21.265,116.724   c2.253,12.369,13.001,21.345,25.555,21.345c1.562,0,3.138-0.144,4.685-0.425l0.063-0.012l0.063-0.015l61.158-12.514   c14.064-2.602,23.415-16.145,20.852-30.227L145.477,32.417C143.229,20.084,132.48,11.108,119.928,11.108L119.928,11.108z"/></g></svg>