<?xml version="1.0" ?><!DOCTYPE svg  PUBLIC '-//W3C//DTD SVG 1.1//EN'
    'http://www.w3.org/Graphics/SVG/1.1/DTD/svg11.dtd'>
<svg enable-background="new 0 0 200 200" height="200px" version="1.1" viewBox="0 0 200 200" width="200px" xmlns="http://www.w3.org/2000/svg" xml:space="preserve" ><g id="icon"><g id="Layer_2"/><g><linearGradient gradientTransform="matrix(1 0 0 -1 -50 61)" gradientUnits="userSpaceOnUse" id="SVGID_1_" x1="149.2588" x2="151.2588" y1="40.21" y2="-167.7896"><stop style="stop-color:#FFFFFF" offset="0"/><stop style="stop-color:#6E6E6E" offset="1"/></linearGradient><path d="M160.918,146.426c1.979,10.866-5.227,21.281-16.092,23.26l-61.219,12.527    c-10.866,1.98-21.28-5.225-23.26-16.092L39.082,49.396c-1.98-10.867,5.225-21.28,16.091-23.26l61.146-9.052    c10.865-1.979,21.281,5.224,23.262,16.092L160.918,146.426z" fill="url(#SVGID_1_)"/><linearGradient gradientTransform="matrix(1 0 0 -1 -50 61)" gradientUnits="userSpaceOnUse" id="SVGID_2_" x1="143.6025" x2="157.6028" y1="82.3345" y2="-178.6682"><stop style="stop-color:#FFFFFF" offset="0"/><stop style="stop-color:#6E6E6E" offset="1"/></linearGradient><path d="M160.918,146.426c1.979,10.866-5.227,21.281-16.092,23.26l-61.219,12.527    c-10.866,1.98-21.28-5.225-23.26-16.092L39.082,49.396c-1.98-10.867,5.225-21.28,16.091-23.26l61.146-9.052    c10.865-1.979,21.281,5.224,23.262,16.092L160.918,146.426z" fill="url(#SVGID_2_)"/><linearGradient gradientTransform="matrix(1 0 0 -1 -50 61)" gradientUnits="userSpaceOnUse" id="SVGID_3_" x1="143.3633" x2="157.8773" y1="86.7773" y2="-183.8054"><stop style="stop-color:#FFFFFF" offset="0"/><stop style="stop-color:#6E6E6E" offset="1"/></linearGradient><path d="M79.999,185.54c-11.104,0-20.61-7.94-22.604-18.881L36.13,49.934    c-1.101-6.044,0.217-12.155,3.712-17.207c3.495-5.052,8.749-8.441,14.793-9.542l61.244-9.068c1.271-0.233,2.665-0.359,4.047-0.359    c11.104,0,20.611,7.94,22.604,18.881l21.336,113.231c2.275,12.496-6.026,24.495-18.504,26.767l-61.153,12.516    C82.776,185.414,81.381,185.54,79.999,185.54z" fill="url(#SVGID_3_)"/><linearGradient gradientTransform="matrix(1 0 0 -1 -50 61)" gradientUnits="userSpaceOnUse" id="SVGID_4_" x1="140.6934" x2="166.6933" y1="40.9497" y2="-176.5501"><stop style="stop-color:#FFFFFF" offset="0"/><stop style="stop-color:#AAACAF" offset="1"/></linearGradient><path d="M119.928,22.757L119.928,22.757c6.754,0,12.535,4.834,13.756,11.53c0,0-3.604,32.056,1.924,61.395    c5.123,27.187,19.408,51.819,19.408,51.819c1.383,7.595-3.67,14.899-11.266,16.282l-0.062,0.012l-0.063,0.014L82.475,176.32    c-0.82,0.146-1.652,0.221-2.475,0.221c-6.754,0-12.537-4.834-13.75-11.494c0,0,5.037-34.697-0.142-63.123    c-5.447-29.899-21.123-53.603-21.123-53.603c-0.67-3.679,0.132-7.398,2.26-10.474c2.11-3.05,5.273-5.104,8.915-5.792l61.038-9.035    l0.1-0.015l0.099-0.019C118.232,22.834,119.085,22.757,119.928,22.757" fill="url(#SVGID_4_)"/><linearGradient gradientTransform="matrix(1 0 0 -1 -50 61)" gradientUnits="userSpaceOnUse" id="SVGID_5_" x1="167.2422" x2="147.7421" y1="-126.5913" y2="-12.0912"><stop style="stop-color:#4A4747" offset="0"/><stop style="stop-color:#000000" offset="1"/></linearGradient><polygon fill="url(#SVGID_5_)" points="131.385,158.773 95.301,165.277 78.99,74.854 115.023,68.528   "/><linearGradient gradientTransform="matrix(1 0 0 -1 -50 61)" gradientUnits="userSpaceOnUse" id="SVGID_6_" x1="156.0059" x2="165.5061" y1="-31.4541" y2="-82.9559"><stop style="stop-color:#6E6E6E" offset="0.2883"/><stop style="stop-color:#BBBBBF" offset="0.6258"/><stop style="stop-color:#3B3B3B" offset="1"/></linearGradient><path d="M128.527,142.898l-36.213,6.375l-9.639-53.642l36.214-6.375    c5.789-1.04,12.641,10.125,15.301,24.937C136.854,129.008,134.316,141.859,128.527,142.898z" fill="url(#SVGID_6_)"/><linearGradient gradientTransform="matrix(1 0 0 -1 -50 61)" gradientUnits="userSpaceOnUse" id="SVGID_7_" x1="146.0908" x2="161.9859" y1="155.915" y2="25.0862"><stop style="stop-color:#FFFFFF" offset="0"/><stop style="stop-color:#6E6E6E" offset="1"/></linearGradient><polygon fill="url(#SVGID_7_)" points="143.881,89.19 132.34,108.257 96.127,114.631 107.668,95.565   "/><linearGradient gradientTransform="matrix(1 0 0 -1 -50 61)" gradientUnits="userSpaceOnUse" id="SVGID_8_" x1="188.6738" x2="216.015" y1="-64.0518" y2="-129.9191"><stop style="stop-color:#FFFFFF" offset="0"/><stop style="stop-color:#6E6E6E" offset="1"/></linearGradient><polygon fill="url(#SVGID_8_)" points="143.881,89.19 107.668,95.565 99.902,80.054 136.115,73.679   "/><linearGradient gradientTransform="matrix(1 0 0 -1 -50 61)" gradientUnits="userSpaceOnUse" id="SVGID_9_" x1="194.8936" x2="136.8905" y1="-36.0317" y2="-57.033"><stop style="stop-color:#B5B7B9" offset="0"/><stop style="stop-color:#6E6E6E" offset="0.6564"/><stop style="stop-color:#3D3D3D" offset="1"/></linearGradient><path d="M96.39,113.746l0.064,0.123l11.214-18.304l-7.766-15.511L89.378,99.182    c-2.198-2.605-4.524-3.941-6.702-3.549l9.639,53.641c5.789-1.039,8.324-13.891,5.662-28.705    C97.549,118.188,97.012,115.902,96.39,113.746z" fill="url(#SVGID_9_)"/><g><radialGradient cx="143.7676" cy="11.8135" gradientTransform="matrix(1 0 0 -1 -50 61)" gradientUnits="userSpaceOnUse" id="SVGID_10_" r="15.7892"><stop style="stop-color:#39B54A" offset="0"/><stop style="stop-color:#39B54A" offset="0.6196"/><stop style="stop-color:#39B54A;stop-opacity:0" offset="1"/></radialGradient><path d="M77.189,51.224c-1.719-9.256,4.309-17.671,13.466-18.794c9.153-1.126,17.972,5.465,19.691,14.719     c1.721,9.257-4.31,17.669-13.464,18.795C87.726,67.066,78.91,60.478,77.189,51.224z" fill="url(#SVGID_10_)"/><path d="M80.478,50.821C79.1,43.4,83.932,36.654,91.272,35.753c7.339-0.902,14.408,4.381,15.787,11.799     c1.379,7.421-3.455,14.166-10.794,15.067C88.924,63.52,81.857,58.239,80.478,50.821z" fill="#39B54A"/><radialGradient cx="143.7676" cy="11.8145" gradientTransform="matrix(1 0 0 -1 -50 61)" gradientUnits="userSpaceOnUse" id="SVGID_11_" r="10.957"><stop style="stop-color:#F2FF88" offset="0"/><stop style="stop-color:#EBFF81" offset="0.0541"/><stop style="stop-color:#D9FF6F" offset="0.2381"/><stop style="stop-color:#D2FF68" offset="0.3681"/><stop style="stop-color:#CDFD62" offset="0.473"/><stop style="stop-color:#BDF852" offset="0.61"/><stop style="stop-color:#A3EF37" offset="0.7647"/><stop style="stop-color:#80E412" offset="0.9314"/><stop style="stop-color:#6FDE00" offset="1"/></radialGradient><path d="M83.004,50.509c-1.115-6.009,2.799-11.473,8.743-12.202c5.942-0.731,11.667,3.547,12.784,9.556     c1.117,6.009-2.799,11.471-8.741,12.201C89.846,60.794,84.121,56.518,83.004,50.509z" fill="url(#SVGID_11_)"/></g></g></g><g id="outline_x5F_white"><g><path d="M119.927,16.757c9.476,0,17.894,6.763,19.653,16.419l21.338,113.25    c1.979,10.866-5.227,21.281-16.092,23.26l-61.219,12.527c-1.212,0.221-2.419,0.327-3.608,0.327    c-9.477,0-17.893-6.765-19.652-16.419L39.082,49.396c-1.98-10.867,5.225-21.28,16.091-23.26l61.146-9.052    C117.531,16.864,118.736,16.757,119.927,16.757 M119.927,4.757c-1.847,0-3.709,0.162-5.538,0.482l-60.973,9.026l-0.197,0.029    l-0.196,0.036c-8.409,1.532-15.719,6.247-20.582,13.275c-4.863,7.029-6.697,15.532-5.165,23.941L48.541,168.27    c2.773,15.223,16.003,26.27,31.458,26.27c1.922,0,3.859-0.176,5.76-0.521l0.128-0.022l0.126-0.024l61.107-12.506    c17.278-3.227,28.756-19.877,25.604-37.188l-0.008-0.036l-0.006-0.036L151.379,30.987C148.59,15.786,135.368,4.757,119.927,4.757    L119.927,4.757z" fill="#FFFFFF"/></g></g><g id="outline_x5F_black"><path d="M119.927,16.757c9.476,0,17.894,6.763,19.653,16.419l21.338,113.25c1.979,10.866-5.227,21.281-16.092,23.26l-61.219,12.527   c-1.212,0.221-2.419,0.327-3.608,0.327c-9.477,0-17.893-6.765-19.652-16.419L39.082,49.396c-1.98-10.867,5.225-21.28,16.091-23.26   l61.146-9.052C117.531,16.864,118.736,16.757,119.927,16.757 M119.927,10.757c-1.526,0-3.065,0.136-4.577,0.405L54.295,20.2   l-0.099,0.015l-0.098,0.018c-6.833,1.245-12.771,5.075-16.722,10.786c-3.952,5.711-5.442,12.62-4.197,19.452l21.265,116.724   c2.253,12.369,13,21.345,25.555,21.345c1.562,0,3.138-0.144,4.685-0.425l0.063-0.012l0.063-0.014l61.158-12.515   c14.066-2.599,23.416-16.144,20.853-30.226L145.477,32.065C143.229,19.733,132.48,10.757,119.927,10.757L119.927,10.757z"/></g></svg>