<svg enable-background="new 0 0 512 512" height="900" version="1.1" viewBox="0 0 900 900"
    width="900" xmlns="http://www.w3.org/2000/svg">
    <defs>
        <linearGradient gradientTransform="scale(1.7578)" gradientUnits="userSpaceOnUse"
            id="linearGradient847" x1="75.01" x2="824.99" y1="450" y2="450">
            <stop offset="0" stop-color="#f15a29" />
            <stop offset="1" stop-color="#f67950" />
        </linearGradient>
    </defs>
    <linearGradient gradientTransform="scale(1.7578)" gradientUnits="userSpaceOnUse" id="SVGID_1_"
        x1="3.8e-6" x2="512" y1="256" y2="256">
        <stop offset="0" stop-color="#f67950" />
        <stop offset="1" stop-color="#f15a29" />
    </linearGradient>
    <circle cx="450" cy="450" fill="url(#SVGID_1_)" opacity=".97" r="450" stroke-width="1.7578" />
    <g fill="url(#linearGradient847)" stroke-width=".2">
        <path
            d="m450 824.99c-206.77 0-374.99-168.23-374.99-374.99 0-206.77 168.23-374.99 374.99-374.99 206.79 0 374.99 168.23 374.99 374.99 0 206.77-168.22 374.99-374.99 374.99z" />
        <rect height="214.42" opacity=".3" width="17.219" x="455.45" y="253.12" />
        <path
            d="m504.12 294.68-3.5728 16.849c80.279 17.018 138.55 89.023 138.55 171.22 0 96.514-78.516 175.03-175.03 175.03s-175.03-78.514-175.03-175.03c0-82.204 58.271-154.21 138.55-171.22l-3.5728-16.849c-88.191 18.691-152.2 97.784-152.2 188.07 0 106.01 86.24 192.25 192.25 192.25s192.25-86.238 192.25-192.25c0-90.274-64.005-169.37-152.19-188.07z"
            opacity=".3" />
    </g>
    <g transform="translate(-3.8861 -13.054)">
        <g transform="matrix(1.7578 0 0 1.7578 -3.1524 6.9612)">
            <rect height="121.98" opacity=".3" width="9.7957" x="259.1" y="144" />
            <path
                d="m286.79 167.64-2.0325 9.5851c45.67 9.6811 78.817 50.644 78.817 97.404 0 54.906-44.667 99.572-99.571 99.572s-99.572-44.666-99.572-99.572c0-46.765 33.15-87.728 78.822-97.404l-2.0325-9.5851c-50.171 10.633-86.585 55.628-86.585 106.99 0 60.307 49.061 109.37 109.37 109.37 60.306 0 109.37-49.06 109.37-109.37 0-51.356-36.412-96.352-86.581-106.99z"
                opacity=".3" />
        </g>
        <g fill="#fff" transform="matrix(1.7578 0 0 1.7578 -3.1524 5.0912)">
            <rect height="121.98" width="9.7957" x="251.1" y="136" />
            <path
                d="m278.79 159.64-2.0325 9.5851c45.67 9.6811 78.817 50.644 78.817 97.404 0 54.906-44.667 99.572-99.571 99.572s-99.572-44.666-99.572-99.572c0-46.765 33.15-87.728 78.822-97.404l-2.0325-9.5851c-50.171 10.633-86.585 55.628-86.585 106.99 0 60.307 49.061 109.37 109.37 109.37 60.306 0 109.37-49.06 109.37-109.37 0-51.356-36.412-96.352-86.581-106.99z" />
        </g>
    </g>
</svg>
