<?xml version="1.0" encoding="UTF-8"?>
<svg xmlns:cc="http://creativecommons.org/ns#" xmlns:dc="http://purl.org/dc/elements/1.1/" xmlns:rdf="http://www.w3.org/1999/02/22-rdf-syntax-ns#" enable-background="new 0 0 512 512" version="1.1" viewBox="0 0 512 512" xmlns="http://www.w3.org/2000/svg" xml:space="preserve"><metadata><rdf:RDF><cc:Work rdf:about=""><dc:format>image/svg+xml</dc:format><dc:type rdf:resource="http://purl.org/dc/dcmitype/StillImage"/><dc:title/></cc:Work></rdf:RDF></metadata><linearGradient gradientUnits="userSpaceOnUse" id="SVGID_1_" x1="3.8e-6" x2="512" y1="256" y2="256"><stop offset="0" stop-color="#F35CB5"/><stop offset="1" stop-color="#EC008C"/></linearGradient><circle cx="256" cy="256" fill="url(#SVGID_1_)" r="256"/><linearGradient gradientUnits="userSpaceOnUse" id="SVGID_2_" x1="42.667" x2="469.33" y1="256" y2="256"><stop offset="0" stop-color="#EC008C"/><stop offset="1" stop-color="#F35CB5"/></linearGradient><path d="m256 469.33c-117.63 0-213.33-95.702-213.33-213.33 0-117.63 95.702-213.33 213.33-213.33 117.64 0 213.33 95.702 213.33 213.33 0 117.63-95.697 213.33-213.33 213.33z" fill="url(#SVGID_2_)"/><rect height="121.98" opacity=".3" width="9.7957" x="259.1" y="144"/><path d="m286.79 167.64l-2.0325 9.5851c45.67 9.6811 78.817 50.644 78.817 97.404 0 54.906-44.667 99.572-99.571 99.572-54.904 0-99.572-44.666-99.572-99.572 0-46.765 33.15-87.728 78.822-97.404l-2.0325-9.5851c-50.171 10.633-86.585 55.628-86.585 106.99-1e-7 60.307 49.061 109.37 109.37 109.37 60.306 0 109.37-49.06 109.37-109.37 0-51.356-36.412-96.352-86.581-106.99z" opacity=".3"/><g fill="#fff"><rect height="121.98" width="9.7957" x="251.1" y="136"/><path d="m278.79 159.64l-2.0325 9.5851c45.67 9.6811 78.817 50.644 78.817 97.404 0 54.906-44.667 99.572-99.571 99.572-54.904 0-99.572-44.666-99.572-99.572 0-46.765 33.15-87.728 78.822-97.404l-2.0325-9.5851c-50.171 10.633-86.585 55.628-86.585 106.99-1e-7 60.307 49.061 109.37 109.37 109.37 60.306 0 109.37-49.06 109.37-109.37 0-51.356-36.412-96.352-86.581-106.99z"/></g></svg>
