<?xml version="1.0" encoding="UTF-8" standalone="no"?>
<svg
   xmlns:cc="http://creativecommons.org/ns#"
   xmlns:dc="http://purl.org/dc/elements/1.1/"
   xmlns:inkscape="http://www.inkscape.org/namespaces/inkscape"
   xmlns:rdf="http://www.w3.org/1999/02/22-rdf-syntax-ns#"
   xmlns:sodipodi="http://sodipodi.sourceforge.net/DTD/sodipodi-0.dtd"
   enable-background="new 0 0 512 512"
   id="Layer_1"
   version="1.1"
   viewBox="0 0 512 512"
   xmlns="http://www.w3.org/2000/svg"
   inkscape:version="0.92.2 5c3e80d, 2017-08-06"
   sodipodi:docname="round-switch-off.svg"
   xml:space="preserve"><metadata
     id="metadata37"><rdf:RDF><cc:Work
         rdf:about=""><dc:format>image/svg+xml</dc:format><dc:type
           rdf:resource="http://purl.org/dc/dcmitype/StillImage" /></cc:Work></rdf:RDF></metadata><defs
     id="defs35" /><sodipodi:namedview
     bordercolor="#666666"
     borderopacity="1"
     gridtolerance="10"
     guidetolerance="10"
     id="namedview33"
     objecttolerance="10"
     pagecolor="#ffffff"
     showgrid="false"
     inkscape:current-layer="Layer_1"
     inkscape:cx="256"
     inkscape:cy="256"
     inkscape:pageopacity="0"
     inkscape:pageshadow="2"
     inkscape:window-height="744"
     inkscape:window-maximized="0"
     inkscape:window-width="1137"
     inkscape:window-x="243"
     inkscape:window-y="59"
     inkscape:zoom="0.4609375" /><g
     id="g16"><linearGradient
       gradientUnits="userSpaceOnUse"
       id="SVGID_1_"
       x1="3.8000001e-06"
       x2="512"
       y1="256"
       y2="256"><stop
         style="stop-color:#F35CB5"
         id="stop2"
         offset="0" /><stop
         style="stop-color:#EC008C"
         id="stop4"
         offset="1" /></linearGradient><circle
       style="fill:url(#SVGID_1_)"
       cx="256"
       cy="256"
       id="circle7"
       r="256" /><linearGradient
       gradientUnits="userSpaceOnUse"
       id="SVGID_2_"
       x1="42.666668"
       x2="469.33334"
       y1="256.00052"
       y2="256.00052"><stop
         style="stop-color:#EC008C"
         id="stop9"
         offset="0" /><stop
         style="stop-color:#F35CB5"
         id="stop11"
         offset="1" /></linearGradient><path
       style="fill:url(#SVGID_2_)"
       d="M 256,469.33386 C 138.36906,469.33386 42.666672,373.63199 42.666672,256.00052 42.666672,138.3696 138.36906,42.667206 256,42.667206 c 117.63626,0 213.33334,95.702404 213.33334,213.333314 0,117.63147 -95.69708,213.33334 -213.33334,213.33334 z"
       id="path14"
       inkscape:connector-curvature="0" /></g><g
     id="g22"
     transform="matrix(1,0,0,-1,0,550)"><rect
       style="opacity:0.3"
       height="121.97547"
       id="rect18"
       width="9.7957335"
       x="259.10239"
       y="144" /><path
       style="opacity:0.3"
       d="m 286.78665,167.64374 -2.03253,9.58507 c 45.66989,9.68106 78.81708,50.64425 78.81708,97.40425 0,54.90615 -44.66721,99.57174 -99.57068,99.57174 -54.90399,0 -99.57172,-44.66559 -99.57172,-99.57174 0,-46.76479 33.14987,-87.728 78.82187,-97.40425 l -2.03253,-9.58507 c -50.17067,10.63305 -86.58507,55.62773 -86.58507,106.98932 0,60.30667 49.06079,109.36694 109.36745,109.36694 60.3056,0 109.36694,-49.06027 109.36694,-109.36694 0,-51.35627 -36.41226,-96.35199 -86.58081,-106.98932 z"
       id="path20"
       inkscape:connector-curvature="0" /></g><g
     id="g28"
     transform="matrix(1,0,0,-1,0,534)"><rect
       style="fill:#ffffff"
       height="121.97547"
       id="rect24"
       width="9.7957335"
       x="251.1024"
       y="136" /><path
       style="fill:#ffffff"
       d="m 278.78665,159.64374 -2.03253,9.58507 c 45.66989,9.68106 78.81708,50.64425 78.81708,97.40425 0,54.90615 -44.66721,99.57174 -99.57068,99.57174 -54.90399,0 -99.57172,-44.66559 -99.57172,-99.57174 0,-46.76479 33.14987,-87.728 78.82187,-97.40425 l -2.03253,-9.58507 c -50.17067,10.63305 -86.58507,55.62773 -86.58507,106.98932 0,60.30667 49.06079,109.36694 109.36745,109.36694 60.3056,0 109.36694,-49.06027 109.36694,-109.36694 0,-51.35627 -36.41226,-96.35199 -86.58081,-106.98932 z"
       id="path26"
       inkscape:connector-curvature="0" /></g></svg>