<svg enable-background="new 0 0 512 512" height="900" version="1.1" viewBox="0 0 900 900"
    width="900" xmlns="http://www.w3.org/2000/svg">
    <defs>
        <linearGradient gradientTransform="scale(1.7578)" gradientUnits="userSpaceOnUse"
            id="SVGID_2_" x1="42.667" x2="469.33" y1="256" y2="256">
            <stop offset="0" stop-color="#00a185" />
            <stop offset="1" stop-color="#33b49d" />
        </linearGradient>
        <linearGradient gradientTransform="scale(1.7578)" gradientUnits="userSpaceOnUse"
            id="linearGradient912" x1="3.8e-6" x2="512" y1="256" y2="256">
            <stop offset="0" stop-color="#33b49d" />
            <stop offset="1" stop-color="#00a185" />
        </linearGradient>
    </defs>
    <circle cx="450" cy="450" fill="url(#linearGradient912)" r="450" stroke-width="1.7578" />
    <path
        d="m450 825c-206.77 0-375-168.23-375-375s168.23-375 375-375c206.78 0 375 168.23 375 375s-168.22 375-375 375z"
        fill="url(#SVGID_2_)" stroke-width="1.7578" />
    <g stroke-width=".18412" transform="matrix(1.7578 0 0 -1.7578 0 966.8)">
        <rect height="121.98" opacity=".3" width="9.7957" x="259.1" y="144" />
        <path
            d="m286.79 167.64-2.0325 9.5851c45.67 9.6811 78.817 50.644 78.817 97.404 0 54.906-44.667 99.572-99.571 99.572s-99.572-44.666-99.572-99.572c0-46.765 33.15-87.728 78.822-97.404l-2.0325-9.5851c-50.171 10.633-86.585 55.628-86.585 106.99 0 60.307 49.061 109.37 109.37 109.37 60.306 0 109.37-49.06 109.37-109.37 0-51.356-36.412-96.352-86.581-106.99z"
            opacity=".3" />
    </g>
    <g fill="#f0ffff" transform="matrix(1.7578,0,0,-1.7578,0,938.67)">
        <rect height="121.98" width="9.7957" x="251.1" y="136" />
        <path
            d="m278.79 159.64-2.0325 9.5851c45.67 9.6811 78.817 50.644 78.817 97.404 0 54.906-44.667 99.572-99.571 99.572s-99.572-44.666-99.572-99.572c0-46.765 33.15-87.728 78.822-97.404l-2.0325-9.5851c-50.171 10.633-86.585 55.628-86.585 106.99 0 60.307 49.061 109.37 109.37 109.37 60.306 0 109.37-49.06 109.37-109.37 0-51.356-36.412-96.352-86.581-106.99z" />
    </g>
</svg>
